<?xml version="1.0" encoding="UTF-8"?>
<svg xmlns="http://www.w3.org/2000/svg" style="display: none;">
  <symbol id="icon-facebook" viewBox="0 0 24 24">

<path d="M22 12.3038C22 6.74719 17.5229 2.24268 12 2.24268C6.47715 2.24268 2 6.74719 2 12.3038C2 17.3255 5.65684 21.4879 10.4375 22.2427V15.2121H7.89844V12.3038H10.4375V10.0872C10.4375 7.56564 11.9305 6.1728 14.2146 6.1728C15.3088 6.1728 16.4531 6.36931 16.4531 6.36931V8.84529H15.1922C13.95 8.84529 13.5625 9.6209 13.5625 10.4166V12.3038H16.3359L15.8926 15.2121H13.5625V22.2427C18.3432 21.4879 22 17.3257 22 12.3038Z" fill="currentColor"/>

  </symbol>
  <symbol id="icon-flower" viewBox="0 0 96 85">

<path d="M19.1547 8.17091C20.6273 5.9463 22.2602 4.06228 24.4993 2.56996C27.6043 0.501308 31.303 -0.539436 35.0082 0.280782C37.9951 0.942238 40.4249 2.95119 42.0608 5.45761C43.7442 9.00385 45.2201 12.5343 46.3129 16.3098C46.5361 17.0779 46.8192 18.6047 47.1333 20.2984C47.6903 23.3009 48.3449 26.8295 48.9337 27.5843C49.4683 32.7817 45.6148 40.4072 42.3837 44.3786C41.6099 45.3412 40.7603 46.2422 39.8444 47.0732C45.4874 56.3025 48.6826 67.0938 49.7036 77.8473C52.1967 69.4939 54.7659 61.1633 57.4143 52.8569C53.2059 46.3652 53.569 35.8099 55.1487 28.5004C56.7204 21.2219 60.2386 13.3091 66.7685 9.2144C67.4947 8.76032 68.2485 8.35244 69.0105 7.9572C73.6217 13.7083 75.3531 20.0993 74.5551 27.4055C73.4861 37.2206 67.9772 46.3979 60.2826 52.4943L59.9634 52.7458C59.3525 54.9196 58.6492 57.0856 57.9459 59.2527C56.9816 62.2227 56.0168 65.1948 55.2882 68.1914C55.3302 68.1745 55.3728 68.1582 55.4154 68.1419C55.4944 68.1118 55.5734 68.0814 55.6513 68.0465C56.5237 67.6565 58.0845 65.2347 59.3847 63.2172C60.0518 62.1818 60.6506 61.2529 61.0523 60.7597C67.8257 52.4354 77.0285 47.4636 87.9304 47.6988C89.9807 47.7425 92.4379 47.8198 94.3886 48.394C95.33 48.6702 95.4893 48.8183 96.0001 49.6353C95.6888 55.4055 88.0897 64.5249 83.73 68.4381C74.7428 76.5049 63.5772 81.1461 52.2886 85C51.829 84.8979 51.5734 84.8411 51.0556 84.7261L47.1048 83.8485L45.0723 83.397L43.2017 82.8307L43.3291 82.498C43.0962 81.5897 41.7536 81.3353 40.8123 81.1567L40.8002 81.1544C40.7141 81.1382 40.6317 81.1225 40.5538 81.1071C39.4513 80.8874 38.3364 80.672 37.2142 80.4551L37.1962 80.4517C24.908 78.078 11.7019 75.5269 3.58043 65.1545C2.19265 63.3823 -0.248179 59.8739 0.0359185 57.648C1.91685 56.0426 7.46652 55.483 9.87476 55.3481C22.0589 54.664 33.5641 61.1474 41.1352 70.313C41.8887 71.2241 42.5743 72.3473 43.2637 73.4769C44.2346 75.0678 45.2135 76.6713 46.4009 77.7128L46.8716 76.8388C45.5513 66.514 43.1497 57.2672 37.4572 48.4625C33.4646 49.6429 29.7616 49.9831 25.6132 49.2238C22.9633 48.7383 18.687 47.4055 17.0864 45.1236C16.6215 44.3913 13.938 43.0666 11.3151 41.7719C9.28118 40.7677 7.28371 39.7816 6.38578 39.1039C2.59195 36.2397 0.715777 32.4359 0.0328676 27.7932L0.016759 27.4019C-0.154822 22.2292 1.09762 17.6103 4.77052 13.805C8.62439 9.81214 13.7289 8.26286 19.1547 8.17091Z" fill="#353C3A"/>
<path d="M19.1533 8.17091C20.6261 5.94627 22.2588 4.06229 24.4982 2.56991C27.6029 0.501267 31.3019 -0.539427 35.0068 0.280787C37.9938 0.942211 40.4235 2.95115 42.0594 5.45756C36.9419 6.93562 35.1967 8.89801 32.2293 13.2892C31.449 15.4279 30.7805 17.6657 30.5914 19.9456C34.1919 23.1115 36.5055 26.6741 36.825 31.5774C36.8633 32.1633 36.9068 32.2723 36.5861 32.7471L35.2777 32.361C34.1117 33.2107 33.8197 34.6585 33.6023 36.0156C33.2146 38.4392 33.1575 41.0527 33.2054 43.5054C30.2013 42.6282 27.5566 42.3238 24.43 42.4691C21.8571 43.1042 19.4294 43.8448 17.085 45.1235C16.2597 43.8233 8.44006 40.6555 6.38452 39.1038C2.59058 36.2397 0.714539 32.4359 0.031621 27.7932L0.0152842 27.402C-0.156243 22.2292 1.09629 17.6103 4.76937 13.805C8.62315 9.81214 13.7275 8.26284 19.1533 8.17091Z" fill="#EAE9E8"/>
<path d="M19.1533 8.17091C20.6261 5.94627 22.2588 4.06229 24.4982 2.56991C27.6029 0.501267 31.3019 -0.539427 35.0068 0.280787C37.9938 0.942211 40.4235 2.95115 42.0594 5.45756C36.9419 6.93562 35.1967 8.89801 32.2293 13.2892C31.449 15.4279 30.7805 17.6657 30.5914 19.9456L26.9973 18.499C25.5633 18.5372 22.7382 18.2499 21.51 18.8683L19.926 19.6368C19.3153 20.1908 18.602 21.0257 17.9 21.4288L16.5729 23.7152L15.6538 23.7717C11.3816 23.6953 7.34786 24.1601 3.43784 26.0007C2.33248 26.5213 1.17248 27.4477 0.031621 27.7932L0.0152842 27.402C-0.156243 22.2292 1.09629 17.6103 4.76937 13.805C8.62315 9.81214 13.7275 8.26284 19.1533 8.17091Z" fill="#DB8778"/>
<path d="M26.9985 18.499C27.6527 16.7503 28.204 14.6001 29.5551 13.2661C30.7745 12.7742 31.0198 12.9354 32.2305 13.2892C31.4503 15.4278 30.7817 17.6656 30.5926 19.9456L26.9985 18.499Z" fill="#353C3A"/>
<path d="M19.9262 19.6369C18.635 18.751 17.1499 17.8468 16.1047 16.6661C15.427 15.9008 15.072 15.0678 15.1194 14.0474L15.7988 13.7131C18.6585 14.3387 19.8811 16.6724 21.5102 18.8684L19.9262 19.6369Z" fill="#353C3A"/>
<path d="M15.653 23.7716C15.1149 23.7052 14.5086 23.6574 13.9864 23.5038C13.114 23.2471 12.9736 22.8866 12.6421 22.1388C13.0143 21.6182 13.1032 21.4746 13.694 21.2155C15.1221 20.5895 16.5003 20.9066 17.8992 21.4288L16.5721 23.7151L15.653 23.7716Z" fill="#353C3A"/>
<path d="M22.7792 10.4907C23.2619 10.6989 23.7354 10.9472 24.0405 11.3937C25.2643 13.1866 25.0593 16.7655 24.8371 18.8429L23.1362 18.3391C22.9032 18.0844 22.7225 17.8818 22.5789 17.5638C21.5765 15.3463 21.9906 12.6975 22.7792 10.4907Z" fill="#353C3A"/>
<path d="M15.6554 23.7716L16.5744 23.7151C15.4543 27.9419 14.8504 32.2169 17.1955 36.1882C18.8693 39.0229 21.5846 40.9312 24.4316 42.469C21.8587 43.1041 19.431 43.8447 17.0866 45.1234C16.2613 43.8232 8.44164 40.6554 6.38611 39.1037C2.59216 36.2396 0.716121 32.4358 0.0332031 27.7931C1.17406 27.4476 2.33406 26.5212 3.43942 26.0006C7.34944 24.16 11.3831 23.6952 15.6554 23.7716Z" fill="#EBB19F"/>
<path d="M55.2881 68.1913C55.4078 68.1431 55.5315 68.1001 55.6511 68.0464C56.9715 67.4562 59.8675 62.2138 61.0523 60.7596C67.8256 52.4353 77.0283 47.4635 87.9302 47.6987C89.9806 47.7424 92.4378 47.8196 94.3884 48.3939C95.3298 48.6701 95.4894 48.8181 96 49.6352C95.6888 55.4053 88.0898 64.5248 83.7298 68.438C74.7425 76.5048 63.5773 81.146 52.2884 84.9999C58.1522 77.5917 65.0133 70.322 72.3531 64.3664C74.9061 62.2946 85.6884 55.711 86.4702 54.3567C86.1232 54.131 86.0753 53.9874 85.6445 54.0499C75.8953 55.4646 57.1151 75.447 51.2832 83.0021C52.0212 77.8579 53.2896 72.9999 55.2881 68.1913Z" fill="#97A898"/>
<path d="M43.2013 82.8306L43.329 82.4979C43.0737 81.5026 41.486 81.2924 40.5534 81.107C27.3761 78.4804 12.4477 76.4794 3.58009 65.1544C2.19232 63.3822 -0.248553 59.8738 0.0354639 57.6479C1.91668 56.0425 7.46618 55.483 9.87434 55.3481C22.0588 54.6639 33.5639 61.1473 41.135 70.3129C42.95 72.5073 44.3701 75.9318 46.4005 77.7127L46.8712 76.8388C47.0786 78.0681 47.1624 79.0355 46.9829 80.284C45.5189 79.816 43.2053 76.8169 41.8291 75.73C34.0633 69.5882 20.4416 61.2352 10.1636 61.5297L9.89789 61.8915C12.458 63.8805 16.7841 64.6709 19.8377 65.7275C29.0495 68.9156 39.3208 74.9608 45.1918 82.9114L44.8767 83.2648C44.3661 83.149 43.6481 83.0825 43.2013 82.8306Z" fill="#97A898"/>
<path d="M69.0084 7.95703C73.6197 13.7081 75.351 20.0991 74.5532 27.4054C73.4841 37.2205 67.9753 46.3976 60.2805 52.4941L59.9614 52.7456C61.7405 43.9879 63.0608 34.7562 65.6696 26.2274C66.2401 24.372 67.5086 21.0219 66.5672 19.2558L65.909 19.5184C61.892 25.8612 59.8577 44.5407 57.4124 52.8567C53.204 46.365 53.567 35.8097 55.1466 28.5002C56.7183 21.2217 60.2366 13.3089 66.7666 9.21421C67.4926 8.76013 68.2465 8.35221 69.0084 7.95703Z" fill="#97A898"/>
<path d="M32.2292 13.2892C35.1966 8.89797 36.9418 6.93558 42.0593 5.45752C43.7427 9.00382 45.2186 12.5342 46.3116 16.3097C46.9299 18.4397 48.0109 26.4034 48.9323 27.5842C45.6614 28.2436 43.3916 29.9991 41.5726 32.7618C40.5602 34.3007 39.7676 36.0546 39.0352 37.7435C38.2251 36.248 36.9139 34.403 36.586 32.747C36.9067 32.2723 36.8632 32.1632 36.8249 31.5774C36.5054 26.674 34.1918 23.1114 30.5913 19.9456C30.7804 17.6656 31.4489 15.4278 32.2292 13.2892Z" fill="#EBB19F"/>

  </symbol>
  <symbol id="icon-instagram" viewBox="0 0 24 24">

<path d="M11.9988 4.62091C14.4032 4.62091 14.6878 4.63159 15.6332 4.67378C16.5123 4.71258 16.9864 4.85994 17.303 4.98311C17.7215 5.14509 18.0235 5.34194 18.3362 5.65465C18.6528 5.97129 18.8458 6.26994 19.0111 6.68838C19.1343 7.00503 19.2816 7.48253 19.3204 8.35822C19.3626 9.3076 19.3733 9.59218 19.3733 11.9932C19.3733 14.3942 19.3626 14.6821 19.3204 15.6281C19.2816 16.5072 19.1343 16.9813 19.0111 17.298C18.8491 17.7164 18.6528 18.0184 18.3396 18.3311C18.0229 18.6478 17.7243 18.8407 17.3064 19.0061C16.9898 19.1292 16.5117 19.2766 15.6366 19.3154C14.6872 19.3576 14.4026 19.3683 12.0016 19.3683C9.60062 19.3683 9.31266 19.3576 8.36666 19.3154C7.48759 19.2766 7.01346 19.1292 6.69682 19.0061C6.27838 18.8441 5.97635 18.6478 5.66308 18.3345C5.34644 18.0179 5.15353 17.7192 4.98817 17.3013C4.865 16.9847 4.71765 16.5066 4.67884 15.6315C4.63666 14.6821 4.62597 14.3975 4.62597 11.9965C4.62597 9.59556 4.63666 9.3076 4.67884 8.3616C4.71765 7.48253 4.865 7.0084 4.98817 6.69176C5.15015 6.27331 5.347 5.97129 5.65971 5.65802C5.97635 5.34137 6.275 5.14846 6.69344 4.98311C7.01009 4.85994 7.48759 4.71258 8.36328 4.67378C9.30872 4.63159 9.59387 4.62091 11.9982 4.62091H11.9988ZM11.9988 3.00056C9.55563 3.00056 9.25023 3.01125 8.29017 3.05343C7.33405 3.09561 6.67657 3.25028 6.1074 3.47187C5.51348 3.70359 5.01067 4.00955 4.5118 4.51236C4.00899 5.01179 3.70303 5.51404 3.47131 6.10459C3.24972 6.6777 3.09505 7.33123 3.05287 8.28736C3.01069 9.25079 3 9.55619 3 11.9994C3 14.4425 3.01069 14.7479 3.05287 15.708C3.09505 16.6641 3.24972 17.3216 3.47131 17.8908C3.70359 18.4847 4.00899 18.9875 4.5118 19.4864C5.01067 19.9852 5.51348 20.2951 6.10402 20.5235C6.67713 20.7451 7.33067 20.8997 8.28679 20.9419C9.24629 20.9841 9.55225 20.9948 11.9954 20.9948C14.4386 20.9948 14.7446 20.9841 15.7041 20.9419C16.6602 20.8997 17.3177 20.7451 17.8868 20.5235C18.4774 20.2951 18.9802 19.9858 19.4791 19.4864C19.9779 18.9869 20.2878 18.4847 20.5162 17.8941C20.7378 17.321 20.8924 16.6675 20.9346 15.7114C20.9768 14.7519 20.9875 14.4459 20.9875 12.0027C20.9875 9.55956 20.9768 9.25417 20.9346 8.29411C20.8924 7.33798 20.7378 6.68051 20.5162 6.11133C20.2946 5.51348 19.9886 5.01123 19.4864 4.5118C18.9875 4.01293 18.4847 3.70303 17.8941 3.47469C17.321 3.25309 16.6675 3.09842 15.7114 3.05624C14.7485 3.01069 14.4425 3 11.9994 3L11.9988 3.00056Z" fill="currentColor"/>
<path d="M11.9985 7.37671C9.44683 7.37671 7.37598 9.447 7.37598 11.9993C7.37598 14.5516 9.44626 16.6219 11.9985 16.6219C14.5508 16.6219 16.6211 14.5516 16.6211 11.9993C16.6211 9.44756 14.5508 7.37671 11.9985 7.37671ZM11.9985 14.9976C10.3428 14.9976 9.00026 13.6551 9.00026 11.9993C9.00026 10.3435 10.3428 9.00099 11.9985 9.00099C13.6543 9.00099 14.9968 10.3435 14.9968 11.9993C14.9968 13.6551 13.6543 14.9976 11.9985 14.9976Z" fill="currentColor"/>
<path d="M17.8822 7.19404C17.8822 7.79021 17.3991 8.27333 16.8029 8.27333C16.2068 8.27333 15.7236 7.79021 15.7236 7.19404C15.7236 6.59787 16.2068 6.11475 16.8029 6.11475C17.3991 6.11475 17.8822 6.59787 17.8822 7.19404Z" fill="currentColor"/>

  </symbol>
  <symbol id="icon-left-arrow-alt" viewBox="0 0 24 24">

<path d="M12.7069 17.293L8.41394 13H17.9999V11H8.41394L12.7069 6.70697L11.2929 5.29297L4.58594 12L11.2929 18.707L12.7069 17.293Z" fill="currentColor"/>

  </symbol>
  <symbol id="icon-logo" viewBox="0 0 99 48">

<g clip-path="url(#clip0_8463_308)">
<path d="M42.1258 0.712126C41.5068 1.12567 41.0553 1.64772 40.6482 2.26418C39.1482 2.28966 37.737 2.71898 36.6716 3.82541C35.6562 4.87989 35.31 6.15978 35.3574 7.59319L35.3619 7.70159C35.5507 8.98811 36.0693 10.0422 37.1182 10.8358C37.3664 11.0236 37.9186 11.2969 38.4809 11.5751C39.206 11.9339 39.9479 12.301 40.0764 12.5039C40.5189 13.1362 41.7011 13.5056 42.4337 13.6401C43.5806 13.8505 44.6043 13.7562 45.7081 13.4291C47.2818 15.869 47.9457 18.4313 48.3107 21.2924L48.1806 21.5345C47.8523 21.2459 47.5817 20.8016 47.3133 20.3607C47.1228 20.0477 46.9332 19.7365 46.7249 19.484C44.6318 16.9442 41.4511 15.1476 38.0827 15.3372C37.4169 15.3746 35.8827 15.5296 35.3627 15.9745C35.2842 16.5913 35.9589 17.5635 36.3426 18.0546C38.5878 20.9288 42.2388 21.6357 45.6359 22.2935C45.9479 22.3539 46.2577 22.4139 46.5642 22.4751C46.5867 22.4796 46.6106 22.4841 46.6356 22.4889C46.8959 22.5383 47.267 22.6088 47.3314 22.8605L47.2962 22.9527C43.8277 22.369 40.206 22.7899 37.2822 24.8859C34.783 26.6775 33.3482 29.5055 32.8638 32.4974C32.2887 36.0488 32.8889 40.0231 35.0266 42.9798C36.7549 45.3703 39.3076 46.887 42.2136 47.3464C45.4253 47.854 48.9151 47.2572 51.5694 45.3137C54.0882 43.4694 55.5142 40.6503 55.9762 37.608C56.532 33.9465 56.0214 30.054 53.7794 27.0232C52.8112 25.7143 51.6687 24.8238 50.277 24.0033C50.2468 23.9856 50.2164 23.9687 50.1863 23.952C50.0153 23.8571 49.8552 23.7682 49.8083 23.5538C52.9291 22.4859 56.0159 21.1998 58.5005 18.9645C59.7058 17.8801 61.8066 15.3531 61.8927 13.7541C61.7515 13.5277 61.7074 13.4867 61.4472 13.4102C60.9079 13.251 60.2286 13.2296 59.6617 13.2175C56.6478 13.1523 54.1037 14.5301 52.2311 16.8368C52.12 16.9734 51.9545 17.2308 51.7701 17.5177C51.4106 18.0768 50.9791 18.7479 50.738 18.856C50.7164 18.8656 50.6946 18.874 50.6727 18.8824C50.661 18.8869 50.6492 18.8914 50.6376 18.8961C50.839 18.0657 51.1057 17.2422 51.3723 16.4191C51.5667 15.8186 51.7612 15.2184 51.9301 14.6161L52.0183 14.5464C54.1455 12.857 55.6685 10.314 55.9641 7.59418C56.1846 5.56957 55.706 3.79861 54.4312 2.20497C54.2205 2.31448 54.0121 2.42751 53.8114 2.55334C52.0061 3.68799 51.0335 5.88067 50.599 7.89756C50.1623 9.92305 50.0619 12.848 51.2254 14.6468C50.4932 16.9486 49.7829 19.2571 49.0937 21.5718C48.8114 18.592 47.9281 15.6016 46.368 13.0442C46.6212 12.8139 46.8561 12.5642 47.07 12.2975C47.9633 11.197 49.0286 9.08394 48.8808 7.64369C48.718 7.43449 48.5371 6.45691 48.3831 5.62477C48.2963 5.15542 48.218 4.73234 48.1563 4.5195C47.8542 3.47329 47.4461 2.495 46.9808 1.5123C46.5285 0.817772 45.8568 0.261081 45.031 0.0777978C44.0067 -0.149487 42.9842 0.138896 42.1258 0.712126ZM43.2024 23.7069C44.6493 23.5641 45.9846 23.7078 47.2432 24.4998C49.2746 25.7785 50.2583 28.1718 50.7688 30.4196C51.6445 34.2809 51.64 40.5555 49.4213 44.0026C48.518 45.4058 47.3535 46.0893 45.7572 46.4356C44.2681 46.5957 42.8494 46.4477 41.5729 45.6054C39.476 44.2216 38.5552 41.5924 38.07 39.2371C37.2573 35.2923 37.1464 29.6188 39.4847 26.124C40.4205 24.7252 41.5852 24.0396 43.2024 23.7069Z" fill="#353C3A"/>
<path d="M40.6476 2.26419C41.0548 1.64773 41.5061 1.12567 42.1252 0.712125C42.9835 0.138896 44.0061 -0.149485 45.0304 0.0777995C45.8562 0.261083 46.5279 0.81777 46.9801 1.51231C45.5654 1.92188 45.0829 2.46567 44.2625 3.68248C44.0468 4.27512 43.862 4.89522 43.8097 5.52701C44.8051 6.40427 45.4447 7.39149 45.5331 8.75023C45.5437 8.91257 45.5557 8.94278 45.467 9.07434L45.1053 8.96737C44.783 9.20282 44.7022 9.60401 44.6421 9.98007C44.5349 10.6517 44.5192 11.3759 44.5324 12.0555C43.7019 11.8125 42.9707 11.7281 42.1064 11.7683C41.3951 11.9444 40.7239 12.1496 40.0758 12.5039C39.8476 12.1436 37.6859 11.2658 37.1176 10.8358C36.0687 10.0422 35.5501 8.98811 35.3613 7.70159L35.3568 7.59319C35.3093 6.15979 35.6556 4.87989 36.6711 3.8254C37.7365 2.71898 39.1476 2.28966 40.6476 2.26419Z" fill="#EAE9E8"/>
<path d="M40.6476 2.26419C41.0548 1.64773 41.5061 1.12567 42.1252 0.712125C42.9835 0.138896 44.0061 -0.149485 45.0304 0.0777995C45.8562 0.261083 46.5279 0.81777 46.9801 1.51231C45.5654 1.92188 45.0829 2.46567 44.2625 3.68248C44.0468 4.27512 43.862 4.89522 43.8097 5.52701L42.8161 5.12614C42.4197 5.13673 41.6387 5.05711 41.2991 5.22848L40.8612 5.44143C40.6924 5.59494 40.4952 5.8263 40.3011 5.93801L39.9342 6.57157L39.6801 6.58723C38.499 6.56605 37.3839 6.69486 36.303 7.2049C35.9974 7.34914 35.6767 7.60587 35.3613 7.70159L35.3568 7.59319C35.3093 6.15978 35.6556 4.87989 36.6711 3.8254C37.7365 2.71898 39.1476 2.28966 40.6476 2.26419Z" fill="#DB8778"/>
<path d="M42.8169 5.12614C42.9978 4.64158 43.1502 4.04574 43.5237 3.67609C43.8608 3.53978 43.9286 3.58445 44.2633 3.68249C44.0476 4.27512 43.8628 4.89522 43.8105 5.52701L42.8169 5.12614Z" fill="#353C3A"/>
<path d="M40.8613 5.44142C40.5043 5.19594 40.0937 4.94539 39.8048 4.61819C39.6174 4.40613 39.5193 4.17532 39.5324 3.89256L39.7202 3.79993C40.5108 3.97329 40.8488 4.61996 41.2992 5.22848L40.8613 5.44142Z" fill="#353C3A"/>
<path d="M39.68 6.58723C39.5313 6.56882 39.3637 6.55558 39.2193 6.51301C38.9781 6.44188 38.9393 6.34197 38.8477 6.13476C38.9505 5.99051 38.9751 5.9507 39.1385 5.87891C39.5333 5.70544 39.9143 5.79333 40.301 5.93802L39.9341 6.57157L39.68 6.58723Z" fill="#353C3A"/>
<path d="M41.6503 2.90699C41.7837 2.96467 41.9146 3.03348 41.999 3.15721C42.3373 3.65402 42.2806 4.64576 42.2192 5.22141L41.749 5.0818C41.6846 5.01122 41.6346 4.95509 41.5949 4.86698C41.3178 4.2525 41.4323 3.51849 41.6503 2.90699Z" fill="#353C3A"/>
<path d="M39.6807 6.58723L39.9348 6.57157C39.6251 7.74284 39.4581 8.92746 40.1064 10.0279C40.5692 10.8134 41.3198 11.3422 42.1069 11.7683C41.3956 11.9444 40.7245 12.1496 40.0763 12.5039C39.8482 12.1436 37.6864 11.2658 37.1181 10.8358C36.0693 10.0422 35.5506 8.98811 35.3618 7.7016C35.6772 7.60587 35.9979 7.34915 36.3035 7.2049C37.3844 6.69486 38.4996 6.56606 39.6807 6.58723Z" fill="#EBB19F"/>
<path d="M50.6375 18.8961C50.6705 18.8828 50.7047 18.8709 50.7378 18.856C51.1028 18.6924 51.9035 17.2397 52.231 16.8368C54.1035 14.5301 56.6477 13.1523 59.6616 13.2175C60.2284 13.2297 60.9077 13.251 61.447 13.4102C61.7073 13.4867 61.7514 13.5277 61.8925 13.7541C61.8065 15.3531 59.7057 17.8801 58.5003 18.9645C56.0158 21.1998 52.9291 22.4859 49.8082 23.5538C51.4293 21.501 53.3261 19.4865 55.3552 17.8362C56.061 17.2621 59.0418 15.4378 59.258 15.0625C59.162 15 59.1488 14.9602 59.0297 14.9775C56.3345 15.3695 51.1425 20.9067 49.5303 23.0002C49.7343 21.5748 50.085 20.2286 50.6375 18.8961Z" fill="#97A898"/>
<path d="M47.2962 22.9527L47.3315 22.8605C47.2609 22.5847 46.822 22.5265 46.5642 22.4751C42.9212 21.7473 38.7942 21.1928 36.3427 18.0546C35.959 17.5635 35.2842 16.5913 35.3627 15.9745C35.8828 15.5296 37.417 15.3746 38.0828 15.3372C41.4512 15.1476 44.6319 16.9442 46.725 19.484C47.2268 20.0921 47.6193 21.041 48.1807 21.5345L48.3108 21.2924C48.3681 21.633 48.3913 21.9011 48.3417 22.247C47.937 22.1174 47.2973 21.2863 46.9169 20.9851C44.77 19.2832 41.0042 16.9685 38.1627 17.0502L38.0893 17.1504C38.797 17.7016 39.993 17.9206 40.8372 18.2134C43.3839 19.0968 46.2234 20.772 47.8465 22.9751L47.7594 23.073C47.6182 23.0409 47.4197 23.0225 47.2962 22.9527Z" fill="#97A898"/>
<path d="M54.4307 2.20496C55.7056 3.7986 56.1842 5.56957 55.9636 7.59418C55.6681 10.314 54.1451 12.857 52.0178 14.5464L51.9296 14.6161C52.4215 12.1893 52.7865 9.63114 53.5077 7.26775C53.6654 6.75363 54.0161 5.82531 53.7558 5.33589L53.5739 5.40867C52.4634 7.1663 51.9009 12.3425 51.2249 14.6468C50.0615 12.848 50.1618 9.92305 50.5985 7.89755C51.033 5.88067 52.0057 3.68799 53.811 2.55333C54.0117 2.42751 54.2201 2.31447 54.4307 2.20496Z" fill="#97A898"/>
<path d="M44.2629 3.68249C45.0832 2.46568 45.5657 1.92189 46.9805 1.51231C47.4458 2.49501 47.8539 3.47329 48.156 4.51951C48.327 5.10972 48.6258 7.31651 48.8806 7.6437C47.9763 7.82644 47.3488 8.31288 46.8459 9.07843C46.566 9.50488 46.3469 9.99088 46.1444 10.4589C45.9205 10.0445 45.558 9.53322 45.4673 9.07435C45.556 8.94279 45.544 8.91257 45.5334 8.75024C45.445 7.3915 44.8054 6.40428 43.8101 5.52701C43.8623 4.89523 44.0472 4.27513 44.2629 3.68249Z" fill="#EBB19F"/>
<path d="M87.4029 22.7612C86.5395 22.7355 85.6793 22.783 84.8192 22.8548C82.7294 23.2763 80.2194 23.9888 78.9688 25.8687C78.3447 26.807 78.0667 27.9658 78.2884 29.0793C78.4517 29.8972 78.8895 30.6449 79.5975 31.1044C80.2525 31.5293 81.1932 31.7234 81.9596 31.5516C82.5959 31.409 83.1374 30.9962 83.4804 30.4464C83.8697 29.8221 83.9833 29.0301 83.8156 28.3165C83.712 27.8761 83.411 27.5296 83.1186 27.1927C82.6328 26.6332 82.1704 26.1005 82.6742 25.2098C83.0845 24.4856 84.0572 24.0541 84.8291 23.8759C86.0223 23.6004 87.4482 23.6846 88.5025 24.3536C89.5336 25.0081 90.1092 26.0833 90.364 27.2534C90.6783 28.7047 90.7522 30.822 89.9063 32.0893C89.139 33.2393 87.1868 33.6909 84.9937 34.1982C81.8506 34.9253 78.2124 35.7669 76.8581 38.9431C76.3372 40.1639 76.4931 41.4172 76.6105 42.3605C76.6758 42.8851 76.7291 43.3138 76.6475 43.5879C76.6618 43.6067 76.6762 43.6254 76.6905 43.6443C76.8601 43.8727 76.9973 44.1191 77.1346 44.3657C77.2348 44.5457 77.3351 44.7258 77.4481 44.8992C78.3899 46.3469 79.6603 46.9762 81.3398 47.2349C83.8741 47.6254 86.684 47.069 88.7627 45.5291C89.259 45.1614 90.1765 44.3351 90.2746 43.6974C90.2831 43.7086 90.2915 43.7196 90.2996 43.7308L90.3099 43.7457C90.6138 44.2011 90.7222 44.6567 90.8241 45.0853C91.0383 45.9864 91.2241 46.7677 93.1396 47.175C94.5766 47.4806 96.802 47.3258 98.0769 46.4782C98.3383 46.3049 98.6073 46.0352 98.658 45.7146C98.6648 45.6724 98.6664 45.6411 98.6664 45.6076C98.6663 45.5811 98.6652 45.5532 98.6647 45.5173C98.6432 45.497 98.6249 45.4792 98.6089 45.4635C98.5142 45.3706 98.4966 45.3533 98.3239 45.3577C98.0711 45.3642 97.8121 45.4105 97.5533 45.4568C96.8952 45.5744 96.2383 45.6918 95.6883 45.1546C94.8724 44.3578 94.888 42.5132 94.8979 41.33C94.8987 41.2385 94.8994 41.1511 94.8998 41.0683C94.9196 38.5097 94.9251 35.9511 94.9174 33.3924C94.9075 27.6078 94.7222 22.9787 87.4029 22.7612ZM90.0198 33.4413L90.3352 33.4316L90.4301 33.5637C90.5209 34.2996 90.4949 35.0395 90.469 35.7793C90.457 36.118 90.4451 36.4568 90.4444 36.795C90.4434 37.2413 90.4585 37.6956 90.4738 38.1529C90.5102 39.2464 90.5472 40.3574 90.3662 41.4123C90.2647 42.0083 90.0463 42.5788 89.7254 43.0915C89.0196 44.2165 87.8539 44.9161 86.5715 45.1898C85.0529 45.5139 83.8608 45.1783 82.5838 44.3594C82.5061 44.2214 82.431 44.0896 82.3587 43.9628C81.6118 42.6527 81.1659 41.8705 81.3167 40.1217C81.6008 36.819 84.8829 35.5918 87.5772 34.5845L87.7845 34.507L87.929 34.4527C88.0301 34.4146 88.1422 34.3746 88.2605 34.3323L88.2622 34.3317C88.8277 34.1296 89.5401 33.8751 89.9273 33.5281C89.9401 33.5168 89.9526 33.5053 89.9649 33.4936C89.9833 33.4762 90.0013 33.4586 90.0198 33.4413Z" fill="#353C3A"/>
<path d="M87.8254 34.4917C87.7922 34.5041 87.759 34.5166 87.7256 34.529L87.7846 34.507L87.8254 34.4917Z" fill="#EAE9E8"/>
<path d="M11.914 9.71836C12.4484 9.6598 13.0286 9.67954 13.5645 9.73236C15.63 9.91929 17.5348 10.9253 18.8538 12.5256C19.7345 13.613 20.2474 14.9313 20.0868 16.341C19.9929 17.166 19.6847 17.9635 19.0153 18.4889C18.2999 19.0506 17.275 19.329 16.3732 19.2178C15.6138 19.124 14.951 18.7224 14.488 18.116C14.0758 17.5762 13.8962 16.7725 13.997 16.1037C14.2184 14.635 15.7566 14.4999 16.733 13.76C16.9954 13.5612 17.1055 13.3597 17.1528 13.0375C17.0931 12.6613 16.9398 12.4158 16.6867 12.1431C15.7474 11.131 14.3174 10.6642 12.9634 10.6304C11.7971 10.601 10.6425 10.912 9.79585 11.7486C7.7741 13.7459 8.3287 20.0491 8.33465 22.7834C9.68821 22.7961 17.4379 22.5567 18.1363 23.0708C18.2049 23.2984 18.1749 23.4303 18.1164 23.6578C17.5859 24.0205 9.68402 23.8284 8.32693 23.8481L8.33807 31.6688C9.03547 31.6702 9.73607 31.6792 10.4328 31.6501C15.3391 31.4451 13.8702 27.9035 15.0494 26.7305C15.1729 26.6077 15.2372 26.6413 15.4077 26.6413C15.7491 27.0942 15.5951 35.5615 15.5949 36.8324C15.5986 37.1307 15.5772 37.4226 15.5527 37.7195L15.342 37.8914C15.069 37.8947 15.002 37.9371 14.7886 37.7548C14.6219 36.381 14.2281 34.6384 13.2027 33.6531C11.9314 32.4313 9.95917 32.6875 8.33796 32.7082C8.32858 35.042 7.81259 43.5457 9.3083 45.1672C10.1268 46.0546 11.6269 45.9373 12.2034 46.6597L12.1779 46.8176C11.8574 46.9951 11.4638 47.0051 11.1047 47.0199C10.0738 47.0626 0.812093 47.04 0.303267 46.8854C0.201369 46.8545 0.24063 46.8487 0.135203 46.8621C0.115243 46.8647 0.0959418 46.8707 0.0764225 46.875L0.02481 46.7533C0.164202 46.2312 2.28465 45.8185 2.89107 45.1855C4.22026 43.7979 3.739 35.1182 3.72577 32.7257C2.79193 32.7108 0.923476 33.037 0.222213 32.4612C0.0918638 32.2065 0.0556878 32.1592 0.0851322 31.8791C0.603222 31.4158 2.97962 31.6373 3.71673 31.635C3.72864 29.0269 3.72687 26.4187 3.71143 23.8105C2.57699 23.8316 1.05636 24.0314 0.0272399 23.4884L0 23.1634C0.707439 22.5729 2.79799 22.7899 3.71827 22.7972C3.67713 19.41 3.7261 15.3762 5.9727 12.6019C7.4597 10.7656 9.63616 9.95601 11.914 9.71836Z" fill="#353C3A"/>
<path d="M28.3383 8.00254L28.4655 8.02758C28.6387 8.23027 28.639 8.339 28.6523 8.59727C28.7973 11.4038 28.6414 14.3008 28.6403 17.1174L28.6356 34.9363C28.6353 37.0753 28.3282 42.8296 29.0083 44.5086C29.7632 46.3724 31.5267 45.784 32.0951 46.6596L32.0063 46.8928C31.4914 47.0932 22.6416 46.9851 21.2138 47.029C21.1008 47.0288 21.1231 47.0411 21.0388 47.0077C20.8222 46.9217 20.828 46.8362 20.7373 46.6364C20.9515 45.9012 22.5247 46.1978 23.1663 45.484C23.7224 44.8653 23.9391 44.0428 24.0408 43.2382C24.2517 41.5705 24.187 39.857 24.1864 38.1788L24.18 31.112L24.175 20.9928C24.1777 18.7463 24.2344 16.4864 24.1263 14.2424C24.0075 11.7745 24.0913 11.3142 21.6517 10.5592C21.4053 10.4829 21.055 10.4007 20.8723 10.208C20.7573 10.0867 20.7916 10.0455 20.7888 9.88897L20.8914 9.90198C21.0843 9.67801 21.9702 9.62982 22.2799 9.59045C24.3988 9.32071 26.4184 8.97906 28.3383 8.00254Z" fill="#353C3A"/>
<path d="M64.3198 22.6267L64.6517 22.6685C64.6782 22.7099 64.7212 22.7698 64.7399 22.8188C64.9869 23.4631 64.8513 27.7775 64.6021 28.3646C64.9583 28.0549 65.1116 27.6174 65.3233 27.2059C66.0721 25.7514 66.9973 24.4751 68.4916 23.7117C70.0443 22.9182 72.0591 22.5049 73.7431 23.0716C74.6782 23.3862 75.4337 24.0317 75.8626 24.9234C76.3093 25.8536 76.3975 26.9486 76.038 27.9227C75.7446 28.7152 75.1558 29.4222 74.3794 29.7767C73.6438 30.1125 72.8278 30.0836 72.0834 29.7864C71.3313 29.4857 70.6939 28.9486 70.3873 28.1862C69.7962 26.7201 70.5913 26.1898 71.049 24.9844C71.1383 24.7511 71.1218 24.6791 71.0192 24.4604C70.7049 24.309 70.3752 24.3738 70.0498 24.4518C65.9078 25.4451 64.9362 30.3404 64.8524 33.9935C64.8315 34.8934 64.8645 38.0475 64.8645 38.0475C64.8645 38.0475 64.8303 41.0792 64.8645 41.9501C64.9472 44.0661 65.0928 45.501 67.3557 46.1799C67.6866 46.2791 68.1078 46.3409 68.3604 46.5891C68.4277 46.6548 68.3946 46.7746 68.3935 46.8647C68.3681 46.884 68.3427 46.9045 68.3174 46.9227C68.1773 47.0191 57.638 47.0557 57.0535 46.9092L56.9829 46.6664C57.2266 45.7466 58.9977 46.2071 59.6803 45.3382C60.02 44.9057 60.1512 44.342 60.2284 43.8089C60.6442 40.9479 60.4435 37.8565 60.4368 34.9601C60.4313 32.5606 60.5846 30.0047 60.2582 27.6341C59.8049 24.3353 58.604 25.884 57.2399 24.845C57.1208 24.5846 57.1395 24.5568 57.2046 24.2737C59.5281 23.8338 62.1076 23.8141 64.2437 22.6683L64.3198 22.6267Z" fill="#353C3A"/>
</g>
<defs>
<clipPath id="clip0_8463_308">
<rect width="98.6667" height="47.5185" fill="white"/>
</clipPath>
</defs>

  </symbol>
  <symbol id="icon-map" viewBox="0 0 16 20">

<path d="M8.00006 12C10.2061 12 12.0001 10.206 12.0001 8C12.0001 5.794 10.2061 4 8.00006 4C5.79406 4 4.00006 5.794 4.00006 8C4.00006 10.206 5.79406 12 8.00006 12ZM8.00006 6C9.10306 6 10.0001 6.897 10.0001 8C10.0001 9.103 9.10306 10 8.00006 10C6.89706 10 6.00006 9.103 6.00006 8C6.00006 6.897 6.89706 6 8.00006 6Z" fill="#030C01"/>
<path d="M7.42009 19.814C7.58934 19.9349 7.79211 19.9998 8.00009 19.9998C8.20806 19.9998 8.41084 19.9349 8.58009 19.814C8.88409 19.599 16.0291 14.44 16.0001 8C16.0001 3.589 12.4111 0 8.00009 0C3.58909 0 8.80377e-05 3.589 8.80377e-05 7.995C-0.028912 14.44 7.11609 19.599 7.42009 19.814ZM8.00009 2C11.3091 2 14.0001 4.691 14.0001 8.005C14.0211 12.443 9.61209 16.428 8.00009 17.735C6.38909 16.427 1.97909 12.441 2.00009 8C2.00009 4.691 4.69109 2 8.00009 2Z" fill="#030C01"/>

  </symbol>
  <symbol id="icon-menu" viewBox="0 0 24 24">

<path d="M4 6H20V8H4V6ZM4 11H20V13H4V11ZM4 16H20V18H4V16Z" fill="#030C01"/>

  </symbol>
  <symbol id="icon-phone" viewBox="0 0 24 24">

<path d="M17.7073 12.293C17.6145 12.2 17.5043 12.1263 17.383 12.076C17.2617 12.0257 17.1317 11.9998 17.0003 11.9998C16.869 11.9998 16.739 12.0257 16.6176 12.076C16.4963 12.1263 16.3861 12.2 16.2933 12.293L14.6993 13.887C13.9603 13.667 12.5813 13.167 11.7073 12.293C10.8333 11.419 10.3333 10.04 10.1133 9.30096L11.7073 7.70696C11.8003 7.61417 11.874 7.50397 11.9243 7.38265C11.9746 7.26134 12.0005 7.13129 12.0005 6.99996C12.0005 6.86862 11.9746 6.73858 11.9243 6.61726C11.874 6.49595 11.8003 6.38575 11.7073 6.29296L7.70733 2.29296C7.61455 2.20001 7.50434 2.12627 7.38303 2.07596C7.26171 2.02565 7.13167 1.99976 7.00033 1.99976C6.869 1.99976 6.73896 2.02565 6.61764 2.07596C6.49633 2.12627 6.38612 2.20001 6.29333 2.29296L3.58133 5.00496C3.20133 5.38496 2.98733 5.90696 2.99533 6.43996C3.01833 7.86396 3.39533 12.81 7.29333 16.708C11.1913 20.606 16.1373 20.982 17.5623 21.006H17.5903C18.1183 21.006 18.6173 20.798 18.9953 20.42L21.7073 17.708C21.8003 17.6152 21.874 17.505 21.9243 17.3837C21.9746 17.2623 22.0005 17.1323 22.0005 17.001C22.0005 16.8696 21.9746 16.7396 21.9243 16.6183C21.874 16.4969 21.8003 16.3867 21.7073 16.294L17.7073 12.293ZM17.5803 19.005C16.3323 18.984 12.0623 18.649 8.70733 15.293C5.34133 11.927 5.01533 7.64196 4.99533 6.41896L7.00033 4.41396L9.58633 6.99996L8.29333 8.29296C8.1758 8.41041 8.08938 8.55529 8.04189 8.71453C7.9944 8.87376 7.98733 9.04231 8.02133 9.20496C8.04533 9.31996 8.63233 12.047 10.2923 13.707C11.9523 15.367 14.6793 15.954 14.7943 15.978C14.9569 16.0129 15.1256 16.0064 15.285 15.9591C15.4444 15.9117 15.5893 15.825 15.7063 15.707L17.0003 14.414L19.5863 17L17.5803 19.005Z" fill="#030C01"/>

  </symbol>
  <symbol id="icon-right-arrow-alt" viewBox="0 0 24 24">

<path d="M11.293 17.293L12.707 18.707L19.414 12L12.707 5.29297L11.293 6.70697L15.586 11H6V13H15.586L11.293 17.293Z" fill="currentColor"/>

  </symbol>
  <symbol id="icon-x" viewBox="0 0 24 24">

<path d="M17.1761 4.24268H19.9362L13.9061 11.0201L21 20.2427H15.4456L11.0951 14.6493L6.11723 20.2427H3.35544L9.80517 12.9935L3 4.24268H8.69545L12.6279 9.3553L17.1761 4.24268ZM16.2073 18.6181H17.7368L7.86441 5.78196H6.2232L16.2073 18.6181Z" fill="currentColor"/>

  </symbol>
  <symbol id="icon-star" viewBox="0 0 24 24">
    <path fill="currentColor" d="M12 2l3.09 6.26L22 9.27l-5 4.87 1.18 6.88L12 17.77l-6.18 3.25L7 14.14 2 9.27l6.91-1.01L12 2z"/>
  </symbol>
</svg>