<svg width="294" height="126" viewBox="0 0 294 126" fill="none" xmlns="http://www.w3.org/2000/svg">
<g clip-path="url(#clip0_8203_61210)">
<path d="M126.33 2.61251C124.705 3.69806 123.52 5.06846 122.452 6.68667C118.514 6.75354 114.81 7.88049 112.013 10.7849C109.348 13.5529 108.439 16.9126 108.563 20.6753L108.575 20.9599C109.07 24.337 110.432 27.1038 113.185 29.1872C113.837 29.6802 115.286 30.3975 116.762 31.1279C118.666 32.0697 120.613 33.0333 120.951 33.5659C122.112 35.2258 125.215 36.1953 127.138 36.5485C130.149 37.1008 132.836 36.8533 135.734 35.9947C139.865 42.3992 141.607 49.1253 142.566 56.6356L142.224 57.2713C141.362 56.5138 140.652 55.3473 139.947 54.1901C139.447 53.3685 138.95 52.5514 138.403 51.8887C132.908 45.2216 124.559 40.5057 115.717 41.0033C113.969 41.1014 109.942 41.5084 108.577 42.6762C108.371 44.2953 110.142 46.8474 111.149 48.1364C117.043 55.6813 126.627 57.5369 135.544 59.2636C136.363 59.4221 137.177 59.5796 137.981 59.7403C138.04 59.7521 138.103 59.764 138.168 59.7765C138.852 59.9063 139.826 60.0914 139.995 60.752L139.902 60.9941C130.798 59.4618 121.291 60.5668 113.616 66.0687C107.055 70.7716 103.289 78.1951 102.017 86.049C100.508 95.3712 102.083 105.804 107.695 113.565C112.232 119.84 118.932 123.821 126.561 125.027C134.991 126.36 144.152 124.793 151.12 119.692C157.731 114.85 161.475 107.45 162.687 99.4642C164.146 89.8528 162.806 79.635 156.921 71.6791C154.379 68.2433 151.38 65.9057 147.727 63.7519C147.648 63.7053 147.568 63.6609 147.489 63.6171C147.04 63.368 146.62 63.1348 146.497 62.572C154.689 59.7687 162.792 56.3927 169.314 50.5249C172.478 47.6785 177.992 41.045 178.218 36.8478C177.848 36.2535 177.732 36.1458 177.049 35.9449C175.633 35.5272 173.85 35.471 172.362 35.4392C164.451 35.2681 157.772 38.8846 152.857 44.9397C152.565 45.2984 152.131 45.9741 151.646 46.7273C150.703 48.1948 149.57 49.9564 148.937 50.2401C148.881 50.2654 148.823 50.2875 148.766 50.3095C148.735 50.3213 148.704 50.3332 148.674 50.3455C149.202 48.1657 149.902 46.0038 150.602 43.8434C151.113 42.2671 151.623 40.6916 152.066 39.1104L152.298 38.9274C157.882 34.4929 161.88 27.8174 162.656 20.6779C163.235 15.3633 161.978 10.7145 158.632 6.53122C158.079 6.81868 157.532 7.11539 157.005 7.4457C152.266 10.4242 149.713 16.1799 148.572 21.4743C147.426 26.7912 147.162 34.4691 150.216 39.1911C148.295 45.2332 146.43 51.2929 144.621 57.3692C143.88 49.5471 141.561 41.6975 137.466 34.9841C138.131 34.3797 138.747 33.7243 139.309 33.024C141.654 30.1353 144.45 24.5885 144.062 20.8079C143.635 20.2587 143.16 17.6926 142.756 15.5082C142.528 14.2762 142.322 13.1656 142.16 12.6069C141.367 9.86056 140.296 7.29256 139.074 4.71298C137.887 2.88984 136.124 1.42852 133.956 0.947403C131.268 0.35078 128.583 1.10779 126.33 2.61251ZM129.156 62.9738C132.954 62.599 136.46 62.9761 139.763 65.0552C145.096 68.4117 147.678 74.6941 149.018 80.5946C151.317 90.7305 151.305 107.201 145.481 116.25C143.11 119.933 140.053 121.728 135.863 122.637C131.954 123.057 128.23 122.668 124.879 120.457C119.374 116.825 116.957 109.923 115.684 103.741C113.55 93.3853 113.259 78.4927 119.397 69.3187C121.854 65.6469 124.911 63.8472 129.156 62.9738Z" fill="#353C3A"/>
<path d="M122.45 6.68667C123.519 5.06847 124.704 3.69807 126.329 2.61251C128.582 1.10779 131.267 0.350786 133.955 0.947408C136.123 1.42853 137.886 2.88983 139.073 4.71299C135.36 5.78812 134.093 7.21556 131.94 10.4097C131.373 11.9654 130.888 13.5931 130.751 15.2516C133.364 17.5544 135.043 20.1458 135.275 23.7126C135.303 24.1387 135.334 24.218 135.101 24.5633L134.152 24.2825C133.306 24.9006 133.094 25.9537 132.936 26.9409C132.655 28.7038 132.613 30.6048 132.648 32.3889C130.468 31.7509 128.549 31.5294 126.28 31.6351C124.413 32.0971 122.651 32.6358 120.95 33.5659C120.351 32.6202 114.676 30.3159 113.184 29.1872C110.431 27.1038 109.069 24.337 108.574 20.9599L108.562 20.6753C108.438 16.9126 109.346 13.5529 112.012 10.7849C114.809 7.8805 118.513 6.75354 122.45 6.68667Z" fill="#EAE9E8"/>
<path d="M122.45 6.68667C123.519 5.06847 124.704 3.69807 126.329 2.61251C128.582 1.10779 131.267 0.350786 133.955 0.947408C136.123 1.42853 137.886 2.88983 139.073 4.71299C135.36 5.78812 134.093 7.21556 131.94 10.4097C131.373 11.9654 130.888 13.5931 130.751 15.2516L128.143 14.1993C127.102 14.2271 125.052 14.0181 124.161 14.4679L123.011 15.0269C122.568 15.4299 122.05 16.0372 121.541 16.3305L120.578 17.9936L119.911 18.0347C116.81 17.9791 113.883 18.3172 111.046 19.656C110.244 20.0347 109.402 20.7086 108.574 20.9599L108.562 20.6753C108.438 16.9126 109.346 13.5529 112.012 10.7849C114.809 7.8805 118.513 6.75354 122.45 6.68667Z" fill="#DB8778"/>
<path d="M128.144 14.1998C128.618 12.9278 129.018 11.3638 129.999 10.3934C130.884 10.0356 131.062 10.1529 131.941 10.4102C131.374 11.9659 130.889 13.5936 130.752 15.2521L128.144 14.1998Z" fill="#353C3A"/>
<path d="M123.011 15.0277C122.074 14.3833 120.996 13.7256 120.238 12.8667C119.746 12.31 119.489 11.7041 119.523 10.9619L120.016 10.7188C122.091 11.1738 122.979 12.8713 124.161 14.4687L123.011 15.0277Z" fill="#353C3A"/>
<path d="M119.91 18.0352C119.52 17.9869 119.08 17.9521 118.701 17.8404C118.068 17.6537 117.966 17.3914 117.725 16.8475C117.995 16.4688 118.06 16.3643 118.489 16.1759C119.525 15.7205 120.525 15.9512 121.54 16.331L120.577 17.9941L119.91 18.0352Z" fill="#353C3A"/>
<path d="M125.082 8.37402C125.432 8.52542 125.776 8.70606 125.997 9.03086C126.885 10.335 126.736 12.9383 126.575 14.4494L125.341 14.0829C125.172 13.8976 125.041 13.7503 124.936 13.519C124.209 11.906 124.509 9.9792 125.082 8.37402Z" fill="#353C3A"/>
<path d="M119.912 18.0352L120.579 17.9941C119.766 21.0687 119.328 24.1783 121.03 27.0671C122.245 29.1291 124.215 30.5171 126.281 31.6357C124.414 32.0977 122.652 32.6364 120.951 33.5665C120.352 32.6208 114.677 30.3165 113.185 29.1878C110.432 27.1044 109.071 24.3376 108.575 20.9605C109.403 20.7092 110.245 20.0353 111.047 19.6566C113.885 18.3178 116.812 17.9797 119.912 18.0352Z" fill="#EBB19F"/>
<path d="M148.673 50.3462C148.76 50.3112 148.85 50.2799 148.937 50.2408C149.895 49.8115 151.997 45.9982 152.856 44.9404C157.772 38.8853 164.45 35.2688 172.362 35.4399C173.85 35.4717 175.633 35.5279 177.048 35.9456C177.732 36.1465 177.847 36.2542 178.218 36.8485C177.992 41.0457 172.477 47.6792 169.313 50.5257C162.791 56.3935 154.689 59.7694 146.496 62.5727C150.752 57.184 155.731 51.8961 161.057 47.564C162.91 46.0569 170.735 41.268 171.302 40.2829C171.05 40.1188 171.016 40.0143 170.703 40.0597C163.628 41.0888 149.999 55.624 145.767 61.1195C146.303 57.3777 147.223 53.844 148.673 50.3462Z" fill="#97A898"/>
<path d="M139.902 60.9945L139.995 60.7525C139.809 60.0285 138.657 59.8757 137.981 59.7408C128.418 57.8302 117.584 56.3747 111.149 48.1369C110.142 46.8478 108.371 44.2957 108.577 42.6767C109.942 41.5089 113.969 41.1019 115.717 41.0038C124.559 40.5061 132.908 45.2221 138.403 51.8891C139.72 53.4853 140.75 55.9763 142.224 57.2718L142.565 56.6361C142.716 57.5303 142.777 58.234 142.646 59.1421C141.584 58.8017 139.905 56.6201 138.906 55.8296C133.271 51.362 123.385 45.2861 115.927 45.5003L115.734 45.7634C117.592 47.2102 120.731 47.7852 122.947 48.5537C129.632 50.8728 137.086 55.27 141.347 61.0533L141.118 61.3103C140.747 61.2261 140.226 61.1778 139.902 60.9945Z" fill="#97A898"/>
<path d="M158.63 6.53174C161.977 10.715 163.233 15.3638 162.654 20.6784C161.878 27.8179 157.881 34.4934 152.296 38.9279L152.065 39.1109C153.356 32.7406 154.314 26.0254 156.207 19.8216C156.621 18.472 157.542 16.0351 156.859 14.7504L156.381 14.9415C153.466 19.5552 151.99 33.1426 150.215 39.1917C147.161 34.4696 147.424 26.7917 148.571 21.4748C149.711 16.1805 152.265 10.4247 157.003 7.44621C157.53 7.11591 158.077 6.81919 158.63 6.53174Z" fill="#97A898"/>
<path d="M131.94 10.4101C134.093 7.21595 135.36 5.78851 139.074 4.71338C140.295 7.29295 141.366 9.86095 142.159 12.6073C142.608 14.1566 143.393 19.9494 144.061 20.8083C141.688 21.288 140.04 22.5649 138.72 24.5744C137.986 25.6939 137.41 26.9696 136.879 28.1982C136.291 27.1103 135.339 25.7683 135.102 24.5637C135.334 24.2184 135.303 24.1391 135.275 23.7129C135.043 20.1462 133.364 17.5548 130.751 15.252C130.888 13.5935 131.374 11.9658 131.94 10.4101Z" fill="#EBB19F"/>
<path d="M245.183 60.4912C242.917 60.4237 240.659 60.5485 238.401 60.7369C232.915 61.8433 226.327 63.7137 223.044 68.6485C221.405 71.1114 220.676 74.1533 221.258 77.0762C221.686 79.2233 222.836 81.1859 224.694 82.3922C226.413 83.5076 228.883 84.0171 230.895 83.5661C232.565 83.1918 233.986 82.1082 234.887 80.6649C235.909 79.0261 236.207 76.947 235.767 75.0738C235.495 73.918 234.705 73.0082 233.937 72.124C232.662 70.6552 231.448 69.257 232.771 66.9188C233.847 65.0178 236.401 63.8851 238.427 63.4172C241.559 62.6941 245.302 62.9153 248.07 64.6713C250.776 66.3894 252.287 69.2118 252.956 72.2832C253.781 76.0931 253.975 81.6509 251.755 84.9776C249.741 87.9964 244.616 89.1818 238.859 90.5135C230.608 92.4221 221.058 94.6313 217.503 102.969C216.136 106.173 216.545 109.463 216.853 111.94C217.025 113.316 217.164 114.442 216.95 115.161C216.988 115.211 217.026 115.26 217.063 115.309C217.508 115.909 217.869 116.556 218.229 117.203C218.492 117.676 218.755 118.148 219.052 118.603C221.524 122.404 224.859 124.056 229.268 124.735C235.92 125.76 243.296 124.299 248.753 120.257C250.055 119.292 252.464 117.123 252.722 115.449C252.744 115.478 252.766 115.507 252.787 115.537L252.814 115.576C253.612 116.771 253.896 117.967 254.164 119.092C254.726 121.458 255.214 123.508 260.242 124.578C264.014 125.38 269.856 124.973 273.203 122.748C273.889 122.294 274.595 121.585 274.728 120.744C274.746 120.633 274.75 120.551 274.75 120.463C274.75 120.393 274.747 120.32 274.745 120.226C274.689 120.173 274.641 120.126 274.599 120.085C274.35 119.841 274.304 119.796 273.851 119.807C273.187 119.824 272.507 119.946 271.828 120.067C270.1 120.376 268.376 120.684 266.932 119.274C264.791 117.182 264.832 112.34 264.858 109.234C264.86 108.994 264.862 108.765 264.863 108.547C264.915 101.831 264.929 95.1147 264.909 88.3981C264.883 73.2136 264.396 61.0623 245.183 60.4912ZM252.053 88.5266L252.881 88.5012L253.13 88.848C253.368 90.7795 253.3 92.7219 253.232 94.6638C253.2 95.553 253.169 96.4421 253.167 97.3301C253.165 98.5015 253.204 99.6941 253.244 100.894C253.34 103.765 253.437 106.681 252.962 109.45C252.695 111.015 252.122 112.513 251.28 113.858C249.427 116.811 246.367 118.648 243.001 119.366C239.014 120.217 235.885 119.336 232.533 117.187C232.329 116.824 232.132 116.478 231.942 116.146C229.982 112.707 228.811 110.653 229.207 106.063C229.953 97.393 238.568 94.1717 245.641 91.5275L246.185 91.324L246.564 91.1815C246.83 91.0815 247.124 90.9765 247.434 90.8654L247.439 90.8638C248.923 90.3334 250.793 89.6653 251.81 88.7544C251.844 88.7248 251.876 88.6945 251.909 88.6639C251.957 88.6183 252.004 88.572 252.053 88.5266Z" fill="#353C3A"/>
<path d="M246.291 91.2837C246.204 91.3163 246.117 91.349 246.029 91.3818L246.184 91.3239L246.291 91.2837Z" fill="#EAE9E8"/>
<path d="M47.0242 26.2549C48.427 26.1011 49.95 26.153 51.3569 26.2916C56.7789 26.7823 61.7788 29.4229 65.2413 33.6239C67.5531 36.4782 68.8994 39.939 68.478 43.6394C68.2313 45.805 67.4222 47.8983 65.6651 49.2776C63.7872 50.752 61.0968 51.4829 58.7297 51.1908C56.7363 50.9448 54.9965 49.8905 53.781 48.2986C52.6989 46.8816 52.2276 44.7719 52.4922 43.0164C53.0732 39.1611 57.1112 38.8065 59.6742 36.8641C60.3629 36.3424 60.6518 35.8133 60.776 34.9677C60.6194 33.98 60.217 33.3356 59.5527 32.6197C57.0869 29.9631 53.3331 28.7377 49.7789 28.6489C46.7173 28.5719 43.6864 29.3882 41.4641 31.5842C36.157 36.827 37.6128 53.3729 37.6285 60.5506C41.1816 60.5839 61.5246 59.9555 63.3579 61.305C63.538 61.9025 63.4592 62.2487 63.3055 62.8459C61.9131 63.798 41.1706 63.2938 37.6082 63.3453L37.6374 83.8748C39.4681 83.8785 41.3072 83.902 43.1361 83.8256C56.0152 83.2874 52.1593 73.9907 55.2547 70.9118C55.5789 70.5893 55.7477 70.6776 56.1953 70.6776C57.0915 71.8665 56.6871 94.0932 56.6865 97.4292C56.6964 98.2122 56.6402 98.9785 56.5759 99.7578L56.0227 100.209C55.3063 100.218 55.1302 100.329 54.5701 99.8504C54.1324 96.2443 53.0987 91.6699 50.4071 89.0834C47.0699 85.8763 41.8928 86.5487 37.6371 86.6031C37.6125 92.7294 36.258 115.052 40.1843 119.308C42.3328 121.637 46.2706 121.33 47.7841 123.226L47.7169 123.64C46.8757 124.106 45.8425 124.132 44.9 124.172C42.1936 124.284 17.8817 124.224 16.5461 123.818C16.2786 123.737 16.3817 123.722 16.1049 123.757C16.0525 123.764 16.0018 123.78 15.9506 123.791L15.8151 123.472C16.181 122.101 21.7472 121.018 23.3391 119.356C26.8282 115.714 25.5649 92.9295 25.5301 86.6492C23.0788 86.6101 18.1741 87.4664 16.3333 85.9547C15.9911 85.2863 15.8962 85.1621 15.9735 84.4268C17.3335 83.2107 23.5715 83.792 25.5064 83.7859C25.5377 76.9397 25.533 70.0931 25.4925 63.2466C22.5146 63.3022 18.5229 63.8267 15.8215 62.4013L15.75 61.5482C17.607 59.998 23.0947 60.5677 25.5105 60.5868C25.4025 51.6954 25.531 41.1067 31.4283 33.8242C35.3317 29.0038 41.0449 26.8787 47.0242 26.2549Z" fill="#353C3A"/>
<path d="M90.1384 21.75L90.4725 21.8157C90.927 22.3478 90.9279 22.6332 90.9629 23.3112C91.3433 30.6782 90.9342 38.2829 90.9313 45.6765L90.9189 92.451C90.918 98.0661 90.1121 113.171 91.8973 117.578C93.8788 122.471 98.508 120.926 100 123.225L99.7669 123.837C98.4153 124.363 75.1847 124.079 71.4368 124.194C71.14 124.194 71.1985 124.226 70.9774 124.139C70.4088 123.913 70.4239 123.688 70.1859 123.164C70.7481 121.234 74.8778 122.013 76.562 120.139C78.0219 118.515 78.5907 116.356 78.8576 114.244C79.4111 109.866 79.2415 105.368 79.2397 100.963L79.223 82.4124L79.2099 55.8495C79.2169 49.9525 79.3657 44.0201 79.082 38.1298C78.7702 31.6514 78.9902 30.4431 72.5863 28.4614C71.9393 28.261 71.0199 28.0451 70.5402 27.5393C70.2383 27.2209 70.3283 27.1127 70.3211 26.7019L70.5903 26.736C71.0969 26.1481 73.4223 26.0216 74.2352 25.9183C79.7973 25.2102 85.0989 24.3134 90.1384 21.75Z" fill="#353C3A"/>
<path d="M184.589 60.1392L185.461 60.2489C185.53 60.3574 185.643 60.5146 185.692 60.6434C186.341 62.3346 185.984 73.66 185.33 75.2012C186.265 74.388 186.668 73.2397 187.223 72.1596C189.189 68.3413 191.618 64.9912 195.54 62.9871C199.616 60.9043 204.905 59.8193 209.325 61.3069C211.78 62.1328 213.763 63.8272 214.889 66.1679C216.062 68.6097 216.293 71.484 215.35 74.041C214.58 76.1215 213.034 77.9773 210.996 78.9077C209.065 79.7892 206.923 79.7133 204.969 78.9332C202.994 78.1441 201.321 76.734 200.516 74.7328C198.965 70.8841 201.052 69.4923 202.253 66.328C202.488 65.7157 202.444 65.5267 202.175 64.9527C201.35 64.5552 200.485 64.7251 199.631 64.9301C188.758 67.5374 186.207 80.3875 185.987 89.9769C185.932 92.3391 186.019 100.619 186.019 100.619C186.019 100.619 185.929 108.577 186.019 110.863C186.236 116.418 186.618 120.184 192.559 121.966C193.427 122.227 194.533 122.389 195.196 123.04C195.372 123.213 195.286 123.527 195.283 123.764C195.216 123.814 195.149 123.868 195.083 123.916C194.715 124.169 167.049 124.265 165.515 123.881L165.33 123.243C165.97 120.829 170.619 122.038 172.411 119.757C173.302 118.621 173.647 117.142 173.849 115.742C174.941 108.232 174.414 100.117 174.397 92.5142C174.382 86.2157 174.784 79.5064 173.928 73.2834C172.738 64.6241 169.585 68.6896 166.004 65.9621C165.692 65.2786 165.741 65.2057 165.912 64.4626C172.011 63.3078 178.782 63.256 184.389 60.2483L184.589 60.1392Z" fill="#353C3A"/>
</g>
<defs>
<clipPath id="clip0_8203_61210">
<rect width="259" height="124.736" fill="white" transform="translate(15.75 0.743164)"/>
</clipPath>
</defs>
</svg>
